<svg xmlns="http://www.w3.org/2000/svg" width="200" height="200" viewBox="0 0 200 200">
  <g fill="none" fill-rule="evenodd">
    <path stroke="#DF6008" stroke-dasharray="1 12" stroke-linecap="round" stroke-width="5" d="M93.3132642,148.794029 C123.136641,148.794029 147.313264,125.06512 147.313264,95.7940286 C147.313264,66.5229368 123.136641,42.7940286 93.3132642,42.7940286" transform="rotate(-3 120.313 95.794)"/>
    <g transform="rotate(10 -590.189 392.858)">
      <ellipse cx="15.47" cy="4.153" fill="#DF6008" rx="2.5" ry="3.5" transform="rotate(7 15.47 4.153)"/>
      <path stroke="#DF6008" stroke-linecap="round" stroke-width="4" d="M27.2791251,48.3235244 C28.8699843,44.4983247 29.5830837,41.8284756 29.4184232,40.3139771 C28.7559682,34.2209116 23.3472854,30.6107325 23.0404524,27.7469579 C22.4086028,21.8496949 25.4848078,19.3263518 23.9848078,15.8263518 C22.9848078,13.4930185 20.3232052,12.2175679 16,12"/>
      <path stroke="#DF6008" stroke-linecap="round" stroke-width="4" d="M14.8683803,39.566742 C15.2894601,37.0871116 15.5,33.5972964 15.5,29.0972964 C15.5,26.4159483 10.3392657,23.3791998 9.92855738,21.5511548 C9.30535249,18.7772968 11.235911,17.3082898 10.0303845,15.5 C8.69705116,13.5 5.53038449,12.3333333 0.530384494,12" transform="matrix(-1 0 0 1 16.03 0)"/>
      <path stroke="#DF8F07" stroke-linecap="round" stroke-width="4" d="M2.74379849,66.5214782 C4.46176255,59.99991 5.06034959,56.0078787 4.53955964,54.5453843 C2.28150698,48.2042684 9.46769945,44.680991 9.46769945,41.8071025 C9.46769945,35.5366107 7.83410276,32.2271593 13.9231004,32.2271593 C17.6133836,32.2271593 19.141974,36.1989798 19.7736299,40.6639678 C20.1842114,43.5662466 16.265075,47.3026317 16.265075,49.6662862 C16.265075,52.5642762 17.9221846,57.5445271 15.8726578,62.3687778 C14.5818604,65.4071036 13.8682625,68.6245101 13.7318639,72.0209973" transform="rotate(-1 11.274 52.124)"/>
    </g>
    <g transform="scale(-1 1) rotate(10 -120.663 -427.805)">
      <ellipse cx="17.266" cy="3.821" fill="#DF6008" rx="2.5" ry="3.5" transform="rotate(7 17.266 3.82)"/>
      <path stroke="#DF6008" stroke-linecap="round" stroke-width="4" d="M27.2791251,49.3235244 C28.8699843,45.4983247 29.5830837,42.8284756 29.4184232,41.3139771 C28.7559682,35.2209116 23.3472854,31.6107325 23.0404524,28.7469579 C22.4086028,22.8496949 25.4848078,20.3263518 23.9848078,16.8263518 C22.9848078,14.4930185 20.3232052,13.2175679 16,13"/>
      <path stroke="#DF6008" stroke-linecap="round" stroke-width="4" d="M14.8683803,40.566742 C15.2894601,38.0871116 15.5,34.5972964 15.5,30.0972964 C15.5,27.4159483 10.3392657,24.3791998 9.92855738,22.5511548 C9.30535249,19.7772968 11.235911,18.3082898 10.0303845,16.5 C8.69705116,14.5 5.53038449,13.3333333 0.530384494,13" transform="matrix(-1 0 0 1 16.03 0)"/>
      <path stroke="#DF8F07" stroke-linecap="round" stroke-width="4" d="M2.74379849,67.5214782 C4.46176255,60.99991 5.06034959,57.0078787 4.53955964,55.5453843 C2.28150698,49.2042684 9.46769945,45.680991 9.46769945,42.8071025 C9.46769945,36.5366107 7.83410276,33.2271593 13.9231004,33.2271593 C17.6133836,33.2271593 19.141974,37.1989798 19.7736299,41.6639678 C20.1842114,44.5662466 16.265075,48.3026317 16.265075,50.6662862 C16.265075,53.5642762 17.9221846,58.5445271 15.8726578,63.3687778 C14.5818604,66.4071036 13.8682625,69.6245101 13.7318639,73.0209973" transform="rotate(-1 11.274 53.124)"/>
    </g>
  </g>
</svg>
