<svg xmlns="http://www.w3.org/2000/svg" width="119" height="48" viewBox="0 0 119 48">
  <g fill="none" fill-rule="evenodd">
    <g fill="#000" transform="translate(6 12)">
      <path fill-rule="nonzero" d="M29.8798537,7.58741108 C26.3853146,10.3912769 22.0227995,12 17.3898929,12 C12.7595952,12 8.396789,10.3934493 4.90009863,7.58750626 C3.86218037,8.61904733 2.93841632,9.78528052 2.15474288,11.0685668 C1.81202693,11.6297734 1.09188782,11.7989588 0.546267167,11.446453 C0.000646510168,11.0939472 -0.163840254,10.353237 0.178875696,9.79203041 C1.02873791,8.40035821 2.02473008,7.13044675 3.14082292,6 C2.02473008,4.86955325 1.02873791,3.59964179 0.178875696,2.20796959 C-0.163840254,1.64676302 0.000646510168,0.906052794 0.546267167,0.553546999 C1.09188782,0.201041204 1.81202693,0.370226611 2.15474288,0.931433183 C2.93841632,2.21471948 3.86218037,3.38095267 4.90009863,4.41249374 C8.396789,1.6065507 12.7595952,8.65960741e-16 17.3898929,8.65960741e-16 C22.0227995,8.65960741e-16 26.3853146,1.60872311 29.8798537,4.41258892 C31.011215,3.28833589 32.0064151,2.00452073 32.8318088,0.584425682 C33.1624278,0.0155934857 33.8787706,-0.169860303 34.4318051,0.170203051 C34.9848396,0.510266406 35.1651429,1.24707183 34.8345239,1.81590402 C33.9363543,3.36121045 32.8598956,4.76377382 31.639239,6 C32.8598956,7.23622618 33.9363543,8.63878955 34.8345239,10.184096 C35.1651429,10.7529282 34.9848396,11.4897336 34.4318051,11.8297969 C33.8787706,12.1698603 33.1624278,11.9844065 32.8318088,11.4155743 C32.0064151,9.99547927 31.011215,8.71166411 29.8798537,7.58741108 Z M28.0538193,6 C25.0293186,3.70704015 21.3199578,2.39996337 17.3898929,2.39996337 C13.4617826,2.39996337 9.75220798,3.70533938 6.72595014,6 C9.75220797,8.29466062 13.4617826,9.60003663 17.3898929,9.60003663 C21.3199578,9.60003663 25.0293186,8.29295985 28.0538193,6 Z"/>
      <path fill-rule="nonzero" d="M16.4949044,29.1127418 C17.3733565,29.3847009 15.9710154,28.9928703 17.8276352,29.3218053 C19.6842551,29.6507403 18.9093809,30.0582185 18.7950085,30.7099529 C18.6806362,31.3616873 18.0620941,31.7968627 17.4134563,31.6819443 C15.4530721,31.3346255 16.8010706,31.7152568 15.7925755,31.4030377 C13.9085975,30.8197786 12.8427944,30.0912435 13.0951706,28.6531141 C13.2556986,27.7383685 14.2289763,26.1203815 18.7545372,14.4634767 C18.9938969,13.8469359 19.6853667,13.5420965 20.2989782,13.7825988 C20.9125897,14.0231012 21.2159807,14.7178719 20.976621,15.3344128 C17.0690283,25.3995598 16.0188481,27.1880812 15.5358991,28.7345557 C15.7513817,28.8532134 16.0772954,28.9834546 16.4949044,29.1127418 Z" transform="rotate(-14 17.058 22.7)"/>
      <path fill-rule="nonzero" d="M27.4318088,23.6836446 C26.8143695,23.9800194 26.0635693,23.7397601 25.7548497,23.1470104 C25.44613,22.5542607 25.6963968,21.8334828 26.3138361,21.5371079 C27.747999,20.8487004 28.122754,19.7474527 28.122754,17.7617926 C28.122754,15.8155287 27.7765173,14.7480327 26.4603458,14.0670957 C25.8526548,13.7526995 25.6255083,13.024899 25.953,12.4415077 C26.2804916,11.8581165 27.0386069,11.6400529 27.6462979,11.9544491 C30.0335034,13.1894983 30.6226171,15.005818 30.6226171,17.7617926 C30.6226171,18.9128932 30.5539095,19.6424776 30.2483375,20.5404252 C29.7860357,21.8989361 28.8732208,22.9917575 27.4318088,23.6836446 Z" transform="rotate(87 28.123 17.81)"/>
      <path fill-rule="nonzero" d="M6.43180884,23.6836446 C5.81436953,23.9800194 5.06356934,23.7397601 4.75484969,23.1470104 C4.44613004,22.5542607 4.69639676,21.8334828 5.31383607,21.5371079 C6.74799897,20.8487004 7.122754,19.7474527 7.122754,17.7617926 C7.122754,15.8155287 6.77651729,14.7480327 5.46034584,14.0670957 C4.85265483,13.7526995 4.62550834,13.024899 4.95299996,12.4415077 C5.28049157,11.8581165 6.03860688,11.6400529 6.6462979,11.9544491 C9.03350336,13.1894983 9.6226171,15.005818 9.6226171,17.7617926 C9.6226171,18.9128932 9.55390949,19.6424776 9.24833754,20.5404252 C8.78603574,21.8989361 7.87322083,22.9917575 6.43180884,23.6836446 Z" transform="rotate(93 7.123 17.81)"/>
      <ellipse cx="16.793" cy="6.664" rx="1.5" ry="2.5" transform="rotate(7 16.793 6.664)"/>
    </g>
    <g fill="#000" transform="translate(77 12)">
      <path fill-rule="nonzero" d="M29.8798537 7.58741108C26.3853146 10.3912769 22.0227995 12 17.3898929 12 12.7595952 12 8.396789 10.3934493 4.90009863 7.58750626 3.86218037 8.61904733 2.93841632 9.78528052 2.15474288 11.0685668 1.81202693 11.6297734 1.09188782 11.7989588.546267167 11.446453.000646510168 11.0939472-.163840254 10.353237.178875696 9.79203041 1.02873791 8.40035821 2.02473008 7.13044675 3.14082292 6 2.02473008 4.86955325 1.02873791 3.59964179.178875696 2.20796959-.163840254 1.64676302.000646510168.906052794.546267167.553546999 1.09188782.201041204 1.81202693.370226611 2.15474288.931433183 2.93841632 2.21471948 3.86218037 3.38095267 4.90009863 4.41249374 8.396789 1.6065507 12.7595952 8.65960741e-16 17.3898929 8.65960741e-16 22.0227995 8.65960741e-16 26.3853146 1.60872311 29.8798537 4.41258892 31.011215 3.28833589 32.0064151 2.00452073 32.8318088.584425682 33.1624278.0155934857 33.8787706-.169860303 34.4318051.170203051 34.9848396.510266406 35.1651429 1.24707183 34.8345239 1.81590402 33.9363543 3.36121045 32.8598956 4.76377382 31.639239 6 32.8598956 7.23622618 33.9363543 8.63878955 34.8345239 10.184096 35.1651429 10.7529282 34.9848396 11.4897336 34.4318051 11.8297969 33.8787706 12.1698603 33.1624278 11.9844065 32.8318088 11.4155743 32.0064151 9.99547927 31.011215 8.71166411 29.8798537 7.58741108zM28.0538193 6C25.0293186 3.70704015 21.3199578 2.39996337 17.3898929 2.39996337 13.4617826 2.39996337 9.75220798 3.70533938 6.72595014 6 9.75220797 8.29466062 13.4617826 9.60003663 17.3898929 9.60003663 21.3199578 9.60003663 25.0293186 8.29295985 28.0538193 6zM18.3556657 29.6116937C19.2578401 29.6624292 17.8276889 29.6219955 19.6760036 29.4935934 21.5243184 29.3651914 20.8824069 29.9408927 20.9282882 30.59286 20.9741695 31.2448273 20.4878908 31.8097168 19.8421545 31.8545759 17.8905395 31.9901542 19.2662177 32.03284 18.2304884 31.9745937 16.2956342 31.8657835 15.1063035 31.4222251 15.0050609 29.9835818 14.940664 29.0685093 15.483983 27.2852187 17.0277166 15.0315474 17.1093656 14.3834432 17.6961569 13.9260437 18.3383515 14.009917 18.9805462 14.0937903 19.4349582 14.6871752 19.3533092 15.3352794 18.0203734 25.9157041 17.4442727 27.8808154 17.3514395 29.4783971 17.5850894 29.5406292 17.9267792 29.5875744 18.3556657 29.6116937zM22.1577994 18.1482132C21.8294225 17.5576922 22.0301161 16.8087412 22.6060612 16.4753843 23.1820063 16.1420275 23.9151042 16.3505002 24.2434812 16.9410213 25.0062219 18.3126595 26.125894 18.6237033 28.1094006 18.5216078 30.0535537 18.4215379 31.1017662 18.0269639 31.7130619 16.7006784 31.9953039 16.0883176 32.7104238 15.828047 33.3103268 16.1193478 33.9102298 16.4106485 34.167745 17.143211 33.8855029 17.7555718 32.7767656 20.1611216 30.9932564 20.8324801 28.2402708 20.9741824 27.0904186 21.0333679 26.3580285 21.0034726 25.4450578 20.7498502 24.0638183 20.3661432 22.9243954 19.5267845 22.1577994 18.1482132zM1.09952824 17.6619186C.835382046 17.0623704 1.11512674 16.3631422 1.72435552 16.1001485 2.33358429 15.8371549 3.04159459 16.1099862 3.30574079 16.7095344 3.91928883 18.1021405 5.0014288 18.5117733 6.98806628 18.6103423 8.93528823 18.7069557 10.0214641 18.4319927 10.7717478 17.2191225 11.1181622 16.6591268 11.8582311 16.4801029 12.4247379 16.8192614 12.9912447 17.15842 13.169665 17.8873284 12.8232506 18.4473241 11.4624237 20.647167 9.61432068 21.1150102 6.85698952 20.9782024 5.70532234 20.9210613 4.97898145 20.8197648 4.09661405 20.4857538 2.76167462 19.9804264 1.71617751 19.0615637 1.09952824 17.6619186z"/>
      <ellipse cx="16.5" cy="5.5" rx="1.5" ry="2.5"/>
    </g>
    <g fill="#000" transform="translate(46 4)">
      <circle cx="1.5" cy="6.5" r="1.5"/>
      <circle cx="8.5" cy="1.5" r="1.5"/>
      <circle cx="24.5" cy="6.5" r="1.5"/>
      <circle cx="17.5" cy="1.5" r="1.5"/>
    </g>
  </g>
</svg>
