<svg xmlns="http://www.w3.org/2000/svg" width="24" height="24" viewBox="0 0 24 24">
  <g fill="none" fill-rule="evenodd" transform="translate(7 2)">
    <ellipse cx="5.746" cy=".969" fill="#DF6008" rx="1" ry="1" transform="rotate(7 5.746 .969)"/>
    <path fill="#DF6008" fill-rule="nonzero" d="M4.79108617,4.00949546 C3.97695807,3.96165002 3.44575327,4.09463161 3.17633556,4.36404932 C3.0979088,4.44247608 3.07278217,4.58695421 3.07278217,5.07299593 C3.07278217,5.83424377 3.02160197,6.23089031 2.76999577,6.73410272 C2.55991336,7.15426754 2.27409602,7.44286334 1.89565639,7.6732795 C1.77104771,7.74914855 1.64628259,7.81396997 1.44803558,7.913491 C1.23185435,8.02567102 1.17803164,8.07397958 1.15988807,8.14105377 C0.945599185,8.93324922 0.945599185,9.8544322 1.16658274,10.9078406 C1.2232777,11.1781003 1.05014929,11.4431494 0.779889609,11.4998444 C0.509629932,11.5565393 0.244580833,11.3834109 0.187885876,11.1131512 C-0.0637334183,9.91370504 -0.0637334183,8.83488801 0.194580554,7.87993808 C0.305371316,7.47036042 0.544501965,7.25572876 0.987440006,7.02588089 C1.19500766,6.92108635 1.28476595,6.87445266 1.37560799,6.81914271 C1.60278539,6.68082383 1.75590556,6.52621516 1.87556857,6.28688913 C2.03700585,5.96401458 2.07278217,5.68674808 2.07278217,5.07299593 C2.07278217,4.30903765 2.12660291,3.99956841 2.46922878,3.65694254 C2.9777664,3.14840492 3.77891341,2.94802308 4.85149275,3.0113203 L4.85449213,3.01150201 C6.10001317,3.09063428 6.9377831,3.50951924 7.28236183,4.31353628 C7.39853812,4.58461429 7.45460946,4.84980879 7.46206471,5.13138118 C7.46882268,5.38661808 7.45752867,5.48027813 7.37168933,6.04283538 C7.28754832,6.59426239 7.26650899,6.95850358 7.31994389,7.45722936 C7.33682545,7.61479055 7.3709731,7.69459104 7.81829585,8.65754959 C7.905963,8.84627199 7.97487366,8.99987877 8.03794325,9.14932186 C8.41949262,10.0534012 8.53992948,10.6942496 8.27000291,11.2341027 C7.91459333,11.9449219 7.55283972,12.4875523 7.17634271,12.8640493 C6.98108056,13.0593115 6.66449807,13.0593115 6.46923593,12.8640493 C6.27397378,12.6687872 6.27397378,12.3522047 6.46923593,12.1569425 C6.75940559,11.8667729 7.06431863,11.4094033 7.37557572,10.7868891 C7.46706945,10.6039017 7.38731639,10.1795331 7.11663052,9.53814425 C7.05888187,9.40130912 6.99447065,9.25773191 6.91137139,9.07884285 C6.87437627,8.9992029 6.74625278,8.72643464 6.7241282,8.67897628 C6.65148609,8.52315519 6.59810207,8.40527817 6.55089757,8.2949648 C6.42145615,7.99246992 6.34743077,7.76719212 6.32563474,7.56376249 C6.2614821,6.96500451 6.2871141,6.52125321 6.38313142,5.89199356 C6.45763506,5.40372601 6.4668925,5.32695497 6.46241505,5.15784912 C6.45824537,5.00036736 6.42854137,4.85987956 6.3632168,4.70745558 C6.19501431,4.31498308 5.69945091,4.06720138 4.7910865,4.00948985 L4.79108617,4.00949546 Z"/>
    <path fill="#DF8F07" fill-rule="nonzero" d="M2.43156582,14.0544521 C2.61446473,14.5680731 2.45528708,15.6296433 1.98362784,17.4201102 C1.91328399,17.6871427 1.63978642,17.8465904 1.37275393,17.7762465 C1.10572143,17.7059027 0.946273781,17.4324051 1.01661763,17.1653726 C1.42589811,15.6117019 1.57366466,14.6262334 1.48951226,14.3899146 C1.13920716,13.4061797 1.41319101,12.6428486 2.14722815,11.7351224 C2.72207889,11.0242494 2.72406782,11.021469 2.72406782,10.9562075 C2.72406782,10.7295334 2.71659056,10.5285213 2.69927398,10.2112505 C2.64900981,9.29032054 2.65562629,9.0585546 2.82753991,8.70741905 C3.07342064,8.2052048 3.57471233,8 4.36639079,8 C5.54500454,8 6.13499668,8.99212286 6.36148216,10.5930815 C6.41535192,10.9738709 6.30521152,11.3450744 6.0672097,11.7998216 C6.00763078,11.9136583 5.94602722,12.0223112 5.85161857,12.1830315 C5.5497088,12.6969997 5.46685112,12.8685455 5.46685112,12.9712284 C5.46685112,13.1247066 5.47434067,13.1927401 5.54385211,13.7319009 C5.67506254,14.7496257 5.67426259,15.3915262 5.43860603,16.1224448 C5.40574983,16.2243525 5.36841502,16.3247124 5.32643124,16.4235354 C5.01929204,17.1464908 4.84952123,17.9119382 4.81695687,18.7228297 C4.80587628,18.9987497 4.57321636,19.2134444 4.29729639,19.2023638 C4.02137641,19.1912832 3.80668167,18.9586233 3.81776226,18.6827033 C3.85514052,17.7519399 4.05128934,16.8675617 4.40604678,16.0325207 C4.43623031,15.9614737 4.46311847,15.8891954 4.48685038,15.8155879 C4.66505021,15.2628786 4.66570034,14.7412053 4.55206078,13.8597678 C4.47427338,13.2564151 4.46685112,13.1889929 4.46685112,12.9712284 C4.46685112,12.6002876 4.55982024,12.4078073 4.98937335,11.6765405 C5.07614223,11.528826 5.13100303,11.4320657 5.18121878,11.336119 C5.33028083,11.051308 5.38856196,10.8548845 5.37134111,10.7331555 C5.20722983,9.57310149 4.86641985,9 4.36639079,9 C3.91547648,9 3.76819568,9.0602897 3.72567449,9.14713973 C3.66552568,9.26999436 3.65998389,9.46411566 3.69778783,10.1567519 C3.71601777,10.4907572 3.72406782,10.7071676 3.72406782,10.9562075 C3.72406782,11.2312058 3.61522505,11.4747229 3.41571675,11.7536256 C3.31360525,11.8963724 2.81628779,12.4982168 2.92341134,12.3656344 C2.386849,13.02958 2.22626893,13.4779326 2.43156582,14.0544521 Z"/>
  </g>
</svg>
