<svg xmlns="http://www.w3.org/2000/svg" width="48" height="48" viewBox="0 0 48 48">
  <g fill="none" fill-rule="evenodd">
    <path fill="#000" fill-rule="nonzero" d="M17.5111107,29.6792676 C16.7278175,29.9489771 15.8741901,29.5326352 15.6044806,28.749342 C15.3347711,27.9660487 15.751113,27.1124214 16.5344062,26.8427119 C22.7737616,24.6943295 26.1225735,20.8955711 25.5308104,16.0092533 C24.7990135,9.96664559 22.3954415,6.9830972 17.7468572,5.48434202 C16.958397,5.23013367 16.5253002,4.38488374 16.7795085,3.59642346 C17.0337169,2.80796318 17.8789668,2.37486641 18.6674271,2.62907476 C24.4428344,4.4911302 27.6381651,8.45748681 28.5090494,15.6485702 C29.3000072,22.1796818 24.9453211,27.1194637 17.5111107,29.6792676 Z" transform="rotate(112 22.062 16.159)"/>
    <path fill="#000" fill-rule="nonzero" d="M19.4600622,45.7196809 C18.6919579,46.0300151 17.8177108,45.6589192 17.5073765,44.890815 C17.1970422,44.1227107 17.5681381,43.2484636 18.3362424,42.9381293 C24.1195255,40.6015312 26.817287,36.2875366 25.8580593,31.3055851 C24.8662605,26.1544691 22.1522362,22.9591161 17.5554165,22.2340319 C16.7371068,22.1049549 16.1783734,21.3369464 16.3074503,20.5186367 C16.4365272,19.7003271 17.2045358,19.1415936 18.0228454,19.2706706 C23.9995748,20.2134164 27.5917751,24.4426887 28.8039514,30.7383814 C30.0497843,37.2088777 26.5083526,42.8719867 19.4600622,45.7196809 Z" transform="rotate(-110 22.67 32.54)"/>
    <ellipse cx="23.5" cy="12" fill="#000" rx="1.5" ry="2"/>
  </g>
</svg>
