<svg xmlns="http://www.w3.org/2000/svg" width="72" height="72" viewBox="0 0 72 72">
  <g fill="#517E7B" fill-rule="evenodd" transform="translate(12 8)">
    <g transform="translate(0 12.108)">
      <ellipse cx="6.018" cy="2.62" rx="1.085" ry="1.488" transform="rotate(7 6.018 2.62)"/>
      <path fill-rule="nonzero" d="M7,6.85714286 C5.12251033,6.85714286 3.90803697,7.20157487 3.33606323,7.81205016 C2.38426916,8.82791278 2.02183786,10.1916502 2.02183786,12.9299608 C2.02183786,14.7886092 2.23288408,16.6837181 2.65556781,18.6159866 C2.74557203,19.0274345 2.47804161,19.4324527 2.05802189,19.5206201 C1.63800216,19.6087875 1.22454606,19.3467169 1.13454183,18.935269 C0.689232575,16.8995695 0.466282304,14.8975671 0.466282304,12.9299608 C0.466282304,9.84641971 0.920740252,8.13640933 2.19003237,6.78167676 C3.11918008,5.78998489 4.72934152,5.33333333 7,5.33333333 C8.82773752,5.33333333 10.1427894,5.97744038 10.8067767,7.27831345 C11.4819792,8.60115924 11.583889,9.67264623 11.5716838,13.0582451 C11.5702401,13.4634993 11.5697606,13.6471333 11.5697606,13.8865245 C11.5697606,15.6818504 11.9740526,17.3320215 12.783194,18.8476902 C12.9822555,19.2205685 12.8350517,19.6809241 12.4544051,19.8759231 C12.0737585,20.0709221 11.6038122,19.9267225 11.4047507,19.5538442 C10.4779061,17.8176963 10.0142051,15.9250389 10.0142051,13.8865245 C10.0142051,13.6448129 10.0146897,13.4592 10.016138,13.0528639 C10.0273879,9.9322615 9.93696328,8.98153086 9.41544552,7.95978179 C9.04239578,7.22890883 8.28337359,6.85714286 7,6.85714286 Z"/>
      <path fill-rule="nonzero" d="M7.32012945,29.4529787 C7.41242436,29.8639394 7.14715413,30.2703817 6.72763181,30.360793 C6.30810948,30.4512044 5.89319964,30.1913478 5.80090473,29.7803872 C4.99417019,26.1882482 4.58924896,23.4808094 4.58924896,21.636607 C4.58906597,21.4365435 4.58906597,21.4365435 4.58851317,21.2299708 C4.58646701,20.4615321 4.58856188,20.097161 4.60219148,19.6462506 C4.70389162,16.2816885 5.50133609,14.4000379 7.86250656,14.4000379 C10.0322581,14.4000379 10.43241,15.4913083 10.4686371,18.7367759 C10.4864145,20.329395 10.5265418,21.0853825 10.6911509,22.0512855 C11.1187057,24.5601164 11.549801,26.7419864 11.9840588,28.5960174 C12.0801212,29.0061487 11.8185915,29.4149106 11.3999158,29.5090125 C10.9812401,29.6031145 10.5639624,29.3469221 10.4678999,28.9367908 C10.0261095,27.0505997 9.58921178,24.8393623 9.15682889,22.3022008 C8.97493057,21.2348472 8.93180347,20.4223439 8.91317453,18.7534371 C8.88601682,16.3204642 8.74058361,15.9238475 7.86250656,15.9238475 C6.73128849,15.9238475 6.23559054,17.0934967 6.15706557,19.6913508 C6.1440906,20.1206037 6.14206036,20.4737354 6.14406343,21.2259961 C6.14461829,21.4331612 6.14461829,21.4331612 6.14480452,21.636607 C6.14480452,23.3468489 6.53554353,25.9594607 7.32012945,29.4529787 Z" transform="rotate(-13 8.296 22.39)"/>
    </g>
    <g transform="rotate(120 18.474 21.295)">
      <ellipse cx="6.018" cy="2.62" rx="1.085" ry="1.488" transform="rotate(7 6.018 2.62)"/>
      <path fill-rule="nonzero" d="M7,6.85714286 C5.12251033,6.85714286 3.90803697,7.20157487 3.33606323,7.81205016 C2.38426916,8.82791278 2.02183786,10.1916502 2.02183786,12.9299608 C2.02183786,14.7886092 2.23288408,16.6837181 2.65556781,18.6159866 C2.74557203,19.0274345 2.47804161,19.4324527 2.05802189,19.5206201 C1.63800216,19.6087875 1.22454606,19.3467169 1.13454183,18.935269 C0.689232575,16.8995695 0.466282304,14.8975671 0.466282304,12.9299608 C0.466282304,9.84641971 0.920740252,8.13640933 2.19003237,6.78167676 C3.11918008,5.78998489 4.72934152,5.33333333 7,5.33333333 C8.82773752,5.33333333 10.1427894,5.97744038 10.8067767,7.27831345 C11.4819792,8.60115924 11.583889,9.67264623 11.5716838,13.0582451 C11.5702401,13.4634993 11.5697606,13.6471333 11.5697606,13.8865245 C11.5697606,15.6818504 11.9740526,17.3320215 12.783194,18.8476902 C12.9822555,19.2205685 12.8350517,19.6809241 12.4544051,19.8759231 C12.0737585,20.0709221 11.6038122,19.9267225 11.4047507,19.5538442 C10.4779061,17.8176963 10.0142051,15.9250389 10.0142051,13.8865245 C10.0142051,13.6448129 10.0146897,13.4592 10.016138,13.0528639 C10.0273879,9.9322615 9.93696328,8.98153086 9.41544552,7.95978179 C9.04239578,7.22890883 8.28337359,6.85714286 7,6.85714286 Z"/>
      <path fill-rule="nonzero" d="M7.32012945,29.4529787 C7.41242436,29.8639394 7.14715413,30.2703817 6.72763181,30.360793 C6.30810948,30.4512044 5.89319964,30.1913478 5.80090473,29.7803872 C4.99417019,26.1882482 4.58924896,23.4808094 4.58924896,21.636607 C4.58906597,21.4365435 4.58906597,21.4365435 4.58851317,21.2299708 C4.58646701,20.4615321 4.58856188,20.097161 4.60219148,19.6462506 C4.70389162,16.2816885 5.50133609,14.4000379 7.86250656,14.4000379 C10.0322581,14.4000379 10.43241,15.4913083 10.4686371,18.7367759 C10.4864145,20.329395 10.5265418,21.0853825 10.6911509,22.0512855 C11.1187057,24.5601164 11.549801,26.7419864 11.9840588,28.5960174 C12.0801212,29.0061487 11.8185915,29.4149106 11.3999158,29.5090125 C10.9812401,29.6031145 10.5639624,29.3469221 10.4678999,28.9367908 C10.0261095,27.0505997 9.58921178,24.8393623 9.15682889,22.3022008 C8.97493057,21.2348472 8.93180347,20.4223439 8.91317453,18.7534371 C8.88601682,16.3204642 8.74058361,15.9238475 7.86250656,15.9238475 C6.73128849,15.9238475 6.23559054,17.0934967 6.15706557,19.6913508 C6.1440906,20.1206037 6.14206036,20.4737354 6.14406343,21.2259961 C6.14461829,21.4331612 6.14461829,21.4331612 6.14480452,21.636607 C6.14480452,23.3468489 6.53554353,25.9594607 7.32012945,29.4529787 Z" transform="rotate(-13 8.296 22.39)"/>
    </g>
    <g transform="rotate(-120 25.842 21.518)">
      <ellipse cx="6.018" cy="2.62" rx="1.085" ry="1.488" transform="rotate(7 6.018 2.62)"/>
      <path fill-rule="nonzero" d="M7,6.85714286 C5.12251033,6.85714286 3.90803697,7.20157487 3.33606323,7.81205016 C2.38426916,8.82791278 2.02183786,10.1916502 2.02183786,12.9299608 C2.02183786,14.7886092 2.23288408,16.6837181 2.65556781,18.6159866 C2.74557203,19.0274345 2.47804161,19.4324527 2.05802189,19.5206201 C1.63800216,19.6087875 1.22454606,19.3467169 1.13454183,18.935269 C0.689232575,16.8995695 0.466282304,14.8975671 0.466282304,12.9299608 C0.466282304,9.84641971 0.920740252,8.13640933 2.19003237,6.78167676 C3.11918008,5.78998489 4.72934152,5.33333333 7,5.33333333 C8.82773752,5.33333333 10.1427894,5.97744038 10.8067767,7.27831345 C11.4819792,8.60115924 11.583889,9.67264623 11.5716838,13.0582451 C11.5702401,13.4634993 11.5697606,13.6471333 11.5697606,13.8865245 C11.5697606,15.6818504 11.9740526,17.3320215 12.783194,18.8476902 C12.9822555,19.2205685 12.8350517,19.6809241 12.4544051,19.8759231 C12.0737585,20.0709221 11.6038122,19.9267225 11.4047507,19.5538442 C10.4779061,17.8176963 10.0142051,15.9250389 10.0142051,13.8865245 C10.0142051,13.6448129 10.0146897,13.4592 10.016138,13.0528639 C10.0273879,9.9322615 9.93696328,8.98153086 9.41544552,7.95978179 C9.04239578,7.22890883 8.28337359,6.85714286 7,6.85714286 Z"/>
      <path fill-rule="nonzero" d="M7.32012945,29.4529787 C7.41242436,29.8639394 7.14715413,30.2703817 6.72763181,30.360793 C6.30810948,30.4512044 5.89319964,30.1913478 5.80090473,29.7803872 C4.99417019,26.1882482 4.58924896,23.4808094 4.58924896,21.636607 C4.58906597,21.4365435 4.58906597,21.4365435 4.58851317,21.2299708 C4.58646701,20.4615321 4.58856188,20.097161 4.60219148,19.6462506 C4.70389162,16.2816885 5.50133609,14.4000379 7.86250656,14.4000379 C10.0322581,14.4000379 10.43241,15.4913083 10.4686371,18.7367759 C10.4864145,20.329395 10.5265418,21.0853825 10.6911509,22.0512855 C11.1187057,24.5601164 11.549801,26.7419864 11.9840588,28.5960174 C12.0801212,29.0061487 11.8185915,29.4149106 11.3999158,29.5090125 C10.9812401,29.6031145 10.5639624,29.3469221 10.4678999,28.9367908 C10.0261095,27.0505997 9.58921178,24.8393623 9.15682889,22.3022008 C8.97493057,21.2348472 8.93180347,20.4223439 8.91317453,18.7534371 C8.88601682,16.3204642 8.74058361,15.9238475 7.86250656,15.9238475 C6.73128849,15.9238475 6.23559054,17.0934967 6.15706557,19.6913508 C6.1440906,20.1206037 6.14206036,20.4737354 6.14406343,21.2259961 C6.14461829,21.4331612 6.14461829,21.4331612 6.14480452,21.636607 C6.14480452,23.3468489 6.53554353,25.9594607 7.32012945,29.4529787 Z" transform="rotate(-13 8.296 22.39)"/>
    </g>
  </g>
</svg>
