<svg xmlns="http://www.w3.org/2000/svg" width="48" height="48" viewBox="0 0 48 48">
  <g fill="none" fill-rule="evenodd">
    <path fill="#000" fill-rule="nonzero" d="M36.7694477,15.5434289 C33.3060769,18.2694512 28.982472,19.8335114 24.3908871,19.8335114 C19.8018878,19.8335114 15.4779942,18.2715633 12.0124915,15.5435215 C10.9838306,16.5464239 10.0683058,17.6802791 9.29162204,18.9279376 C8.95196283,19.4735634 8.23824677,19.6380517 7.6974926,19.2953325 C7.15673843,18.9526133 6.99371876,18.2324674 7.33337796,17.6868415 C8.1756601,16.3338063 9.16276884,15.0991513 10.2689071,14.000089 C9.16276884,12.9010268 8.1756601,11.6663718 7.33337796,10.3133365 C6.99371876,9.76771071 7.15673843,9.04756477 7.6974926,8.70484557 C8.23824677,8.36212638 8.95196283,8.5266147 9.29162204,9.07224053 C10.0683058,10.319899 10.9838306,11.4537542 12.0124915,12.4566566 C15.4779942,9.7286148 19.8018878,8.16666667 24.3908871,8.16666667 C28.982472,8.16666667 33.3060769,9.7307269 36.7694477,12.4567492 C37.8907182,11.3637087 38.8770419,10.115536 39.6950737,8.73486697 C40.022744,8.18182723 40.7326975,8.00152218 41.2807994,8.33214438 C41.8289013,8.66276658 42.0075965,9.37911612 41.6799263,9.93215586 C40.7897676,11.43456 39.72291,12.7981841 38.5131407,14.000089 C39.72291,15.201994 40.7897676,16.565618 41.6799263,18.0680222 C42.0075965,18.621062 41.8289013,19.3374115 41.2807994,19.6680337 C40.7326975,19.9986559 40.022744,19.8183509 39.6950737,19.2653111 C38.8770419,17.8846421 37.8907182,16.6364694 36.7694477,15.5434289 Z M34.9597,14.000089 C31.9621754,11.7707885 28.285899,10.5 24.3908871,10.5 C20.4978123,10.5 16.821324,11.7691349 13.8220579,14.000089 C16.821324,16.2310431 20.4978123,17.5001781 24.3908871,17.5001781 C28.285899,17.5001781 31.9621754,16.2293896 34.9597,14.000089 Z"/>
    <path fill="#000" fill-rule="nonzero" d="M22.8799782,36.708595 C23.7316691,36.9733806 22.3720489,36.5918854 24.1721087,36.912144 C25.9721685,37.2324025 25.2209001,37.6291325 25.1100119,38.2636759 C24.9991238,38.8982192 24.3994251,39.3219158 23.7705473,39.2100287 C21.8698842,38.8718713 23.1768173,39.2424625 22.1990449,38.9384789 C20.3724604,38.3706047 19.339126,37.6612864 19.5838138,36.2610911 C19.7394514,35.3704741 20.6830792,33.7951653 25.0707736,22.4457391 C25.3028414,21.845461 25.9732462,21.5486624 26.5681647,21.782821 C27.1630831,22.0169795 27.4572317,22.693424 27.2251639,23.2937021 C23.436612,33.0933571 22.4184244,34.834702 21.950188,36.3403845 C22.1591061,36.4559123 22.4750912,36.5827181 22.8799782,36.708595 Z" transform="rotate(-14 23.426 30.465)"/>
    <path fill="#000" fill-rule="nonzero" d="M34.3805661,31.6790524 C33.8094035,31.9672065 33.1148753,31.7336115 32.829294,31.1573032 C32.5437127,30.580995 32.7752221,29.8802098 33.3463847,29.5920556 C34.673058,28.922743 35.0197254,27.8520413 35.0197254,25.9214588 C35.0197254,24.0291796 34.6994389,22.9912935 33.4819136,22.329244 C32.9197687,22.0235685 32.7096467,21.3159554 33.012593,20.7487461 C33.3155393,20.1815367 34.0168344,19.9695218 34.5789794,20.2751973 C36.7872654,21.4759892 37.3322254,23.2419284 37.3322254,25.9214588 C37.3322254,27.0406305 37.2686674,27.7499779 36.9859979,28.6230186 C36.5583453,29.9438476 35.7139452,31.0063566 34.3805661,31.6790524 Z" transform="rotate(87 35.02 25.969)"/>
    <path fill="#000" fill-rule="nonzero" d="M13.5680661,31.6790524 C12.9969035,31.9672065 12.3023753,31.7336115 12.016794,31.1573032 C11.7312127,30.580995 11.9627221,29.8802098 12.5338847,29.5920556 C13.860558,28.922743 14.2072254,27.8520413 14.2072254,25.9214588 C14.2072254,24.0291796 13.8869389,22.9912935 12.6694136,22.329244 C12.1072687,22.0235685 11.8971467,21.3159554 12.200093,20.7487461 C12.5030393,20.1815367 13.2043344,19.9695218 13.7664794,20.2751973 C15.9747654,21.4759892 16.5197254,23.2419284 16.5197254,25.9214588 C16.5197254,27.0406305 16.4561674,27.7499779 16.1734979,28.6230186 C15.7458453,29.9438476 14.9014452,31.0063566 13.5680661,31.6790524 Z" transform="rotate(93 14.207 25.969)"/>
    <ellipse cx="24.064" cy="14.127" fill="#000" rx="1.613" ry="2.278" transform="rotate(7 24.064 14.127)"/>
  </g>
</svg>
