<svg xmlns="http://www.w3.org/2000/svg" width="24" height="24" viewBox="0 0 24 24">
  <path d="M.402777778 1C.402777778.44771525.850493028 0 1.40277778 0 1.95506253 0 2.40277778.44771525 2.40277778 1L2.40277778 16C2.40277778 16.5522847 1.95506253 17 1.40277778 17 .850493028 17 .402777778 16.5522847.402777778 16L.402777778 1zM9.40277778 1C9.40277778.44771525 9.85049303 0 10.4027778 0 10.9550625 0 11.4027778.44771525 11.4027778 1L11.4027778 16C11.4027778 16.5522847 10.9550625 17 10.4027778 17 9.85049303 17 9.40277778 16.5522847 9.40277778 16L9.40277778 1z" transform="translate(6 4)"/>
</svg>
