<svg xmlns="http://www.w3.org/2000/svg" width="48" height="48" viewBox="0 0 48 48">
  <g fill="none" fill-rule="evenodd">
    <path fill="#000" fill-rule="nonzero" d="M10,18.5 C9.17157288,18.5 8.5,17.8284271 8.5,17 C8.5,16.1715729 9.17157288,15.5 10,15.5 L14.0943058,15.5 C19.4611552,15.5 24.2258782,18.934218 25.9230249,24.0256584 C27.2118296,27.8920723 30.830136,30.5 34.9056942,30.5 L35.5,30.5 C36.3284271,30.5 37,31.1715729 37,32 C37,32.8284271 36.3284271,33.5 35.5,33.5 L34.9056942,33.5 C29.5388448,33.5 24.7741218,30.065782 23.0769751,24.9743416 C21.7881704,21.1079277 18.169864,18.5 14.0943058,18.5 L10,18.5 Z"/>
    <path fill="#000" fill-rule="nonzero" d="M10,18.5 C9.17157288,18.5 8.5,17.8284271 8.5,17 C8.5,16.1715729 9.17157288,15.5 10,15.5 L14.0943058,15.5 C19.4611552,15.5 24.2258782,18.934218 25.9230249,24.0256584 C27.2118296,27.8920723 30.830136,30.5 34.9056942,30.5 L35.5,30.5 C36.3284271,30.5 37,31.1715729 37,32 C37,32.8284271 36.3284271,33.5 35.5,33.5 L34.9056942,33.5 C29.5388448,33.5 24.7741218,30.065782 23.0769751,24.9743416 C21.7881704,21.1079277 18.169864,18.5 14.0943058,18.5 L10,18.5 Z" transform="matrix(1 0 0 -1 0 49)"/>
    <path fill="#000" fill-rule="nonzero" d="M34.9393398 15.0606602C34.3535534 14.4748737 34.3535534 13.5251263 34.9393398 12.9393398 35.5251263 12.3535534 36.4748737 12.3535534 37.0606602 12.9393398L41.1213203 17 37.0606602 21.0606602C36.4748737 21.6464466 35.5251263 21.6464466 34.9393398 21.0606602 34.3535534 20.4748737 34.3535534 19.5251263 34.9393398 18.9393398L36.8786797 17 34.9393398 15.0606602zM34.9393398 30.0606602C34.3535534 29.4748737 34.3535534 28.5251263 34.9393398 27.9393398 35.5251263 27.3535534 36.4748737 27.3535534 37.0606602 27.9393398L41.1213203 32 37.0606602 36.0606602C36.4748737 36.6464466 35.5251263 36.6464466 34.9393398 36.0606602 34.3535534 35.4748737 34.3535534 34.5251263 34.9393398 33.9393398L36.8786797 32 34.9393398 30.0606602z"/>
  </g>
</svg>
