<svg xmlns="http://www.w3.org/2000/svg" width="24" height="24" viewBox="0 0 24 24">
  <g fill-rule="evenodd" transform="translate(3 9)">
    <path fill-rule="nonzero" d="M15.2661068,3.63661678 C13.6385152,4.77535977 11.4096598,5.50010953 9,5.50010953 C6.59033039,5.50010953 4.36146655,4.77535385 2.73387323,3.63660282 C2.59368448,3.75826362 2.46001751,3.88406071 2.33328364,4.01370998 C2.14025435,4.21117973 1.82369232,4.21477943 1.62622257,4.02175014 C1.42875282,3.82872084 1.42515312,3.51215882 1.61818242,3.31468907 C1.72148991,3.20900508 1.82866848,3.10567422 1.93954882,3.00480679 C1.34666548,2.46738739 0.873882748,1.86590901 0.552786405,1.22371633 C0.42929178,0.976727077 0.529403954,0.676390557 0.776393202,0.552895933 C1.02338245,0.429401308 1.32371897,0.529513482 1.4472136,0.776502731 C1.73327959,1.34863471 2.17173085,1.88890434 2.73007885,2.37123256 C4.37947074,1.20530438 6.5946409,0.5 9,0.5 C11.4052783,0.5 13.6203366,1.20518722 15.2699013,2.37124974 C15.8282587,1.88891716 16.266717,1.3486415 16.5527864,0.776502731 C16.676281,0.529513482 16.9766175,0.429401308 17.2236068,0.552895933 C17.470596,0.676390557 17.5707082,0.976727077 17.4472136,1.22371633 C17.1261149,1.86591366 16.6533277,2.46739609 16.0604383,3.00481846 C16.168621,3.1032265 16.2732834,3.20398034 16.3742683,3.30697777 C16.5675946,3.50415676 16.5644714,3.82072385 16.3672924,4.01405014 C16.1701134,4.20737643 15.8535463,4.20425319 15.66022,4.00707419 C15.5354031,3.87976986 15.403902,3.75619433 15.2661068,3.63661678 Z M14.4187325,3.00246023 C12.9704489,2.06708715 11.0681975,1.5 9,1.5 C6.93172165,1.5 5.02937589,2.06719105 3.58124334,3.00244481 C5.00908149,3.91389771 6.9237037,4.50010953 9,4.50010953 C11.0762846,4.50010953 12.9908969,3.91390432 14.4187325,3.00246023 Z"/>
    <circle cx="9" cy="3" r="1"/>
  </g>
</svg>
