<svg xmlns="http://www.w3.org/2000/svg" width="72" height="72" viewBox="0 0 72 72">
  <g fill="none" fill-rule="evenodd">
    <g fill="#517E7B" transform="translate(15 23)">
      <ellipse cx="5.803" cy="2.603" rx="1.046" ry="1.478" transform="rotate(7 5.803 2.603)"/>
      <path fill-rule="nonzero" d="M6.75,6.81081081 C4.93956353,6.81081081 3.76846422,7.15291558 3.21691811,7.75926603 C2.29911669,8.76826472 1.94962936,10.1227877 1.94962936,12.8425962 C1.94962936,14.6886862 2.15313822,16.5709903 2.5607261,18.4902029 C2.64751589,18.8988707 2.38954013,19.3011523 1.9845211,19.388724 C1.57950208,19.4762957 1.18081227,19.2159958 1.09402248,18.807328 C0.664617126,16.7853833 0.449629365,14.7969079 0.449629365,12.8425962 C0.449629365,9.77988985 0.887856672,8.08143359 2.11181693,6.73585462 C3.00778079,5.75086337 4.56043647,5.2972973 6.75,5.2972973 C8.51246118,5.2972973 9.78054693,5.93705227 10.4208204,7.22913566 C11.0719086,8.5430433 11.1701787,9.60729051 11.1584094,12.9700137 C11.1570172,13.3725297 11.1565549,13.554923 11.1565549,13.7926966 C11.1565549,15.575892 11.5464078,17.2149133 12.3266514,18.720341 C12.5186035,19.0906998 12.376657,19.5479449 12.0096049,19.7416263 C11.6425528,19.9353078 11.1893903,19.7920825 10.9974382,19.4217236 C10.1036952,17.6973064 9.65655491,15.8174373 9.65655491,13.7926966 C9.65655491,13.5526182 9.6570222,13.3682595 9.65841877,12.9646688 C9.66926686,9.86515163 9.58207173,8.92084484 9.07917961,7.90599948 C8.71945307,7.18006485 7.98753882,6.81081081 6.75,6.81081081 Z"/>
      <path fill-rule="nonzero" d="M7.05869626,29.2539721 C7.14769492,29.662156 6.89189863,30.0658521 6.48735924,30.1556525 C6.08281986,30.245453 5.68272822,29.9873522 5.59372956,29.5791683 C4.81580696,26.0113006 4.42534721,23.3221553 4.42534721,21.4904137 C4.42517075,21.291702 4.42517075,21.291702 4.4246377,21.086525 C4.42266462,20.3232785 4.42468467,19.9613693 4.4378275,19.5135056 C4.5358955,16.1716771 5.3048598,14.3027404 7.58170275,14.3027404 C9.67396315,14.3027404 10.059824,15.3866373 10.0947572,18.6101761 C10.1118997,20.1920342 10.1505939,20.9429137 10.3093241,21.9022903 C10.7216091,24.3941697 11.1373081,26.5612973 11.5560567,28.4028011 C11.6486883,28.8101612 11.3964989,29.2161612 10.9927759,29.3096273 C10.5890529,29.4030935 10.186678,29.1486321 10.0940464,28.741272 C9.66803415,26.8678254 9.24673993,24.6715288 8.82979929,22.1515102 C8.65439734,21.0913685 8.61281049,20.284355 8.59484687,18.6267247 C8.56865908,16.2101908 8.42841991,15.8162539 7.58170275,15.8162539 C6.49088533,15.8162539 6.01289087,16.9780001 5.93717037,19.5583011 C5.92465879,19.9846537 5.92270106,20.3353994 5.9246326,21.0825772 C5.92516764,21.2883426 5.92516764,21.2883426 5.92534721,21.4904137 C5.92534721,23.1890999 6.30213126,25.784059 7.05869626,29.2539721 Z" transform="rotate(-13 8 22.238)"/>
    </g>
    <g fill="#517E7B" transform="scale(-1 1) rotate(11 -110.276 -274.188)">
      <ellipse cx="5.803" cy="2.603" rx="1.046" ry="1.478" transform="rotate(7 5.803 2.603)"/>
      <path fill-rule="nonzero" d="M6.75,6.81081081 C4.93956353,6.81081081 3.76846422,7.15291558 3.21691811,7.75926603 C2.29911669,8.76826472 1.94962936,10.1227877 1.94962936,12.8425962 C1.94962936,14.6886862 2.15313822,16.5709903 2.5607261,18.4902029 C2.64751589,18.8988707 2.38954013,19.3011523 1.9845211,19.388724 C1.57950208,19.4762957 1.18081227,19.2159958 1.09402248,18.807328 C0.664617126,16.7853833 0.449629365,14.7969079 0.449629365,12.8425962 C0.449629365,9.77988985 0.887856672,8.08143359 2.11181693,6.73585462 C3.00778079,5.75086337 4.56043647,5.2972973 6.75,5.2972973 C8.51246118,5.2972973 9.78054693,5.93705227 10.4208204,7.22913566 C11.0719086,8.5430433 11.1701787,9.60729051 11.1584094,12.9700137 C11.1570172,13.3725297 11.1565549,13.554923 11.1565549,13.7926966 C11.1565549,15.575892 11.5464078,17.2149133 12.3266514,18.720341 C12.5186035,19.0906998 12.376657,19.5479449 12.0096049,19.7416263 C11.6425528,19.9353078 11.1893903,19.7920825 10.9974382,19.4217236 C10.1036952,17.6973064 9.65655491,15.8174373 9.65655491,13.7926966 C9.65655491,13.5526182 9.6570222,13.3682595 9.65841877,12.9646688 C9.66926686,9.86515163 9.58207173,8.92084484 9.07917961,7.90599948 C8.71945307,7.18006485 7.98753882,6.81081081 6.75,6.81081081 Z"/>
      <path fill-rule="nonzero" d="M7.05869626,29.2539721 C7.14769492,29.662156 6.89189863,30.0658521 6.48735924,30.1556525 C6.08281986,30.245453 5.68272822,29.9873522 5.59372956,29.5791683 C4.81580696,26.0113006 4.42534721,23.3221553 4.42534721,21.4904137 C4.42517075,21.291702 4.42517075,21.291702 4.4246377,21.086525 C4.42266462,20.3232785 4.42468467,19.9613693 4.4378275,19.5135056 C4.5358955,16.1716771 5.3048598,14.3027404 7.58170275,14.3027404 C9.67396315,14.3027404 10.059824,15.3866373 10.0947572,18.6101761 C10.1118997,20.1920342 10.1505939,20.9429137 10.3093241,21.9022903 C10.7216091,24.3941697 11.1373081,26.5612973 11.5560567,28.4028011 C11.6486883,28.8101612 11.3964989,29.2161612 10.9927759,29.3096273 C10.5890529,29.4030935 10.186678,29.1486321 10.0940464,28.741272 C9.66803415,26.8678254 9.24673993,24.6715288 8.82979929,22.1515102 C8.65439734,21.0913685 8.61281049,20.284355 8.59484687,18.6267247 C8.56865908,16.2101908 8.42841991,15.8162539 7.58170275,15.8162539 C6.49088533,15.8162539 6.01289087,16.9780001 5.93717037,19.5583011 C5.92465879,19.9846537 5.92270106,20.3353994 5.9246326,21.0825772 C5.92516764,21.2883426 5.92516764,21.2883426 5.92534721,21.4904137 C5.92534721,23.1890999 6.30213126,25.784059 7.05869626,29.2539721 Z" transform="rotate(-13 8 22.238)"/>
    </g>
  </g>
</svg>
