<svg xmlns="http://www.w3.org/2000/svg" width="292" height="160" viewBox="0 0 292 160">
  <g fill="none" fill-rule="evenodd">
    <text fill="#000" font-family="ArialRoundedMTBold, Arial Rounded MT Bold" font-size="24" letter-spacing="20">
      <tspan x="6.738" y="116"> TANTRIC</tspan>
    </text>
    <text fill="#000" font-family="ArialRoundedMTBold, Arial Rounded MT Bold" font-size="24" letter-spacing="20">
      <tspan x="105.492" y="148">EYE</tspan>
    </text>
    <g fill="#000" transform="translate(106 10)">
      <path fill-rule="nonzero" d="M64.0282579,15.8071064 C56.5399598,21.6484935 47.1917133,25 37.2640563,25 C27.3419897,25 17.9931193,21.6530194 10.5002113,15.8073047 C8.27610079,17.9563486 6.2966064,20.3860011 4.61730617,23.0595142 C3.88291485,24.2286946 2.33975962,24.5811642 1.1705725,23.8467771 C0.00138537893,23.11239 -0.351086259,21.5692437 0.383305063,20.4000634 C2.20443838,17.5007463 4.3387073,14.8550974 6.73033483,12.5 C4.3387073,10.1449026 2.20443838,7.49925372 0.383305063,4.59993665 C-0.351086259,3.43075629 0.00138537893,1.88760999 1.1705725,1.15322291 C2.33975962,0.418835841 3.88291485,0.77130544 4.61730617,1.9404858 C6.2966064,4.61399892 8.27610079,7.04365139 10.5002113,9.19269529 C17.9931193,3.34698062 27.3419897,1.80408488e-15 37.2640563,1.80408488e-15 C47.1917133,1.80408488e-15 56.5399598,3.35150648 64.0282579,9.19289358 C66.4526036,6.85069977 68.5851752,4.17608485 70.3538759,1.2175535 C71.0623453,0.0324864286 72.5973655,-0.353875631 73.7824395,0.354589691 C74.9675134,1.06305501 75.3538777,2.59806631 74.6454083,3.78313338 C72.7207592,7.00252176 70.414062,9.92452879 67.7983693,12.5 C70.414062,15.0754712 72.7207592,17.9974782 74.6454083,21.2168666 C75.3538777,22.4019337 74.9675134,23.936945 73.7824395,24.6454103 C72.5973655,25.3538756 71.0623453,24.9675136 70.3538759,23.7824465 C68.5851752,20.8239151 66.4526036,18.1493002 64.0282579,15.8071064 Z M60.1153271,12.5 C53.6342541,7.7230003 45.6856238,4.99992368 37.2640563,4.99992368 C28.846677,4.99992368 20.8975885,7.71945704 14.4127503,12.5 C20.8975885,17.280543 28.846677,20.0000763 37.2640563,20.0000763 C45.6856238,20.0000763 53.6342541,17.2769997 60.1153271,12.5 Z"/>
      <path fill-rule="nonzero" d="M34.1541903,61.3798841 C36.004902,61.9507418 35.0153436,61.6194869 38.9268468,62.30994 C40.2933889,62.5511601 41.2058549,63.8557129 40.9648967,65.2237401 C40.7239384,66.5917673 39.4208019,67.505225 38.0542599,67.2640049 C33.9241473,66.5349631 34.7992174,66.8427098 32.6745325,66.1873443 C28.7053915,64.9630508 26.4599711,63.4338144 26.9916741,60.4150998 C27.3298724,58.4949971 29.3803616,55.0987512 38.9147561,30.6302511 C39.419036,29.3360972 40.8758158,28.6962221 42.1685648,29.2010501 C43.4613137,29.7058781 44.1004942,31.1642411 43.5962142,32.458395 C35.3637473,53.585706 33.1512408,57.3399132 32.1337701,60.5860503 C32.587746,60.8351194 33.2743769,61.108503 34.1541903,61.3798841 Z" transform="rotate(-14 35.342 48.166)"/>
      <path fill-rule="nonzero" d="M13.1183835,52.2355312 C11.8835049,52.8529789 10.3819045,52.3524387 9.76446518,51.1175434 C9.14702587,49.8826481 9.64755933,48.3810275 10.8824379,47.7635798 C13.7507637,46.3293976 14.5002738,43.0351316 14.5002738,38.8983397 C14.5002738,34.8436231 13.8078004,31.6196731 11.1754575,30.2010544 C9.96007545,29.5460623 9.50578248,28.0298112 10.1607657,26.8144128 C10.815749,25.5990144 12.3319796,25.1447152 13.5473616,25.7997073 C18.3217725,28.3727266 19.5,33.1567259 19.5,38.8983397 C19.5,41.296466 19.3625848,42.8164334 18.7514409,44.6871576 C17.8268373,47.5173886 16.0012075,50.7940998 13.1183835,52.2355312 Z" transform="rotate(90 14.5 39)"/>
      <path fill-rule="nonzero" d="M60.1183835,52.2355312 C58.8835049,52.8529789 57.3819045,52.3524387 56.7644652,51.1175434 C56.1470259,49.8826481 56.6475593,48.3810275 57.8824379,47.7635798 C60.7507637,46.3293976 61.5002738,43.0351316 61.5002738,38.8983397 C61.5002738,34.8436231 60.8078004,31.6196731 58.1754575,30.2010544 C56.9600755,29.5460623 56.5057825,28.0298112 57.1607657,26.8144128 C57.815749,25.5990144 59.3319796,25.1447152 60.5473616,25.7997073 C65.3217725,28.3727266 66.5,33.1567259 66.5,38.8983397 C66.5,41.296466 66.3625848,42.8164334 65.7514409,44.6871576 C64.8268373,47.5173886 63.0012075,50.7940998 60.1183835,52.2355312 Z" transform="rotate(90 61.5 39)"/>
      <ellipse cx="37.5" cy="13" rx="3.5" ry="5" transform="rotate(7 37.5 13)"/>
    </g>
  </g>
</svg>
