<svg xmlns="http://www.w3.org/2000/svg" width="48" height="48" viewBox="0 0 48 48">
  <g fill="none" fill-rule="evenodd">
    <path fill="#000" fill-rule="nonzero" d="M19.6999339,28.1096672 L24.2845873,11.5986751 C24.5062329,10.8004491 25.3330022,10.3330384 26.1312282,10.554684 C26.9294542,10.7763297 27.3968649,11.603099 27.1752193,12.4013249 L22.7998061,28.1587673 C23.54192,28.2968909 24.6472701,28.4144706 26.0915623,28.5027972 C26.9184446,28.5533656 27.5477713,29.26468 27.4972028,30.0915623 C27.4466344,30.9184446 26.73532,31.5477713 25.9084377,31.4972028 C23.9271431,31.3760356 22.4917614,31.2007666 21.5552766,30.9545408 C20.923912,30.788539 20.4528238,30.5830284 20.0846363,30.2373347 C19.4655323,29.6560539 19.339596,28.8152261 19.6999339,28.1096672 Z" transform="rotate(-8 23.5 21)"/>
    <path fill="#000" fill-rule="nonzero" d="M11.8402035,22.2426013 C11.1539337,22.7066329 10.2214302,22.5264733 9.75739866,21.8402035 C9.29336708,21.1539337 9.47352673,20.2214302 10.1597965,19.7573987 C11.033795,19.1664315 11.5,17.8871289 11.5,15.9491837 C11.5,14.0452796 11.0775918,12.8099925 10.2584348,12.2103935 C9.58995289,11.7210843 9.44470474,10.7825092 9.93401394,10.1140273 C10.4233231,9.44554545 11.3618982,9.30029731 12.0303801,9.7896065 C13.7757343,11.0671548 14.5,13.1851916 14.5,15.9491837 C14.5,18.7825684 13.696498,20.98744 11.8402035,22.2426013 Z" transform="rotate(86 12 16)"/>
    <path fill="#000" fill-rule="nonzero" d="M36.8402035,22.2426013 C36.1539337,22.7066329 35.2214302,22.5264733 34.7573987,21.8402035 C34.2933671,21.1539337 34.4735267,20.2214302 35.1597965,19.7573987 C36.033795,19.1664315 36.5,17.8871289 36.5,15.9491837 C36.5,14.0452796 36.0775918,12.8099925 35.2584348,12.2103935 C34.5899529,11.7210843 34.4447047,10.7825092 34.9340139,10.1140273 C35.4233231,9.44554545 36.3618982,9.30029731 37.0303801,9.7896065 C38.7757343,11.0671548 39.5,13.1851916 39.5,15.9491837 C39.5,18.7825684 38.696498,20.98744 36.8402035,22.2426013 Z" transform="rotate(92 37 16)"/>
    <ellipse cx="24.5" cy="37" fill="#000" rx="1.5" ry="2"/>
  </g>
</svg>
