<svg xmlns="http://www.w3.org/2000/svg" width="48" height="48" viewBox="0 0 48 48">
  <g fill="none" fill-rule="evenodd">
    <ellipse cx="24.222" cy="24.167" fill="#000" rx="2.222" ry="2.167"/>
    <path fill="#000" fill-rule="nonzero" d="M4.90569409,22.0259106 C4.33909885,21.4215424 4.36971993,20.4722891 4.97408819,19.905694 C5.57845645,19.3390989 6.52770992,19.36972 7.09430516,19.9740881 C11.8141464,25.0085845 17.4198245,27.4999965 23.9999951,27.4999965 C30.5801658,27.4999965 36.1858438,25.0085845 40.9056851,19.9740881 C41.4722803,19.36972 42.4215338,19.3390989 43.025902,19.905694 C43.6302703,20.4722891 43.6608914,21.4215424 43.0942961,22.0259106 C37.8141399,27.6580761 31.419821,30.4999951 23.9999951,30.4999951 C16.5801693,30.4999951 10.1858503,27.6580761 4.90569409,22.0259106 Z"/>
    <path fill="#000" fill-rule="nonzero" d="M4.90569409,20.0259106 C4.33909885,19.4215424 4.36971993,18.4722891 4.97408819,17.905694 C5.57845645,17.3390989 6.52770992,17.36972 7.09430516,17.9740881 C11.8141464,23.0085845 17.4198245,25.4999965 23.9999951,25.4999965 C30.5801658,25.4999965 36.1858438,23.0085845 40.9056851,17.9740881 C41.4722803,17.36972 42.4215338,17.3390989 43.025902,17.905694 C43.6302703,18.4722891 43.6608914,19.4215424 43.0942961,20.0259106 C37.8141399,25.6580761 31.419821,28.4999951 23.9999951,28.4999951 C16.5801693,28.4999951 10.1858503,25.6580761 4.90569409,20.0259106 Z" transform="matrix(1 0 0 -1 0 46)"/>
  </g>
</svg>
