<svg xmlns="http://www.w3.org/2000/svg" width="375" height="137" viewBox="0 0 375 137" style="background:#fff">
  <g transform="translate(2 29)">
    <path d="M0,62.4825023 C2.84217094e-14,61.4825023 0.201485628,57.6460861 0.201485628,52.9354268 C61.0266727,14.9526595 115.404088,0 184.690535,0 C252.826859,0 317.640717,21.5348827 370,62.5 C370,63.4667592 370,66.3000925 370,71 C318.160506,28.5477809 253.252357,7.95201168 184.690535,7.95201168 C115.251944,7.95201168 61.401689,23.2508346 0,62.4825023 Z" transform="matrix(1 0 0 -1 0 71)"/>
    <path d="M0,75.4825023 C0,75.4825023 0.201485628,70.6460861 0.201485628,65.9354268 C61.0266727,27.9526595 115.404088,12 184.690535,12 C252.826859,12 317.640717,33.5348827 370,74.5 C370,75.4667592 370,78.3000925 370,83 C318.160506,40.5477809 253.252357,19.9520117 184.690535,19.9520117 C115.251944,19.9520117 61.401689,36.2508346 0,75.4825023 Z" transform="matrix(1 0 0 -1 0 95)"/>
  </g>
</svg>
