<svg xmlns="http://www.w3.org/2000/svg" width="48" height="48" viewBox="0 0 48 48">
  <g fill-rule="evenodd" transform="translate(15 4)">
    <ellipse cx="9.5" cy="2" rx="1.5" ry="2"/>
    <path fill-rule="nonzero" d="M9,9.25 C7.12022698,9.25 5.74887513,9.82347441 4.78133841,10.9698588 C3.7533744,12.1878404 3.25,13.5510916 3.25,15.1090909 L3.25,25 C3.25,25.6903559 2.69035594,26.25 2,26.25 C1.30964406,26.25 0.75,25.6903559 0.75,25 L0.75,15.1090909 C0.75,12.9579993 1.46401691,11.0242808 2.8708355,9.35741391 C4.33808139,7.61894983 6.4160049,6.75 9,6.75 C9.17777618,6.75 9.82222382,6.75 10,6.75 C12.5839951,6.75 14.6619186,7.61894983 16.1291645,9.35741391 C17.5359831,11.0242808 18.25,12.9579993 18.25,15.1090909 L18.25,25 C18.25,25.6903559 17.6903559,26.25 17,26.25 C16.3096441,26.25 15.75,25.6903559 15.75,25 L15.75,15.1090909 C15.75,13.5510916 15.2466256,12.1878404 14.2186616,10.9698588 C13.2511249,9.82347441 11.879773,9.25 10,9.25 C9.82222382,9.25 9.17777618,9.25 9,9.25 Z"/>
    <path fill-rule="nonzero" d="M7.25207015,38 C7.25207015,38.6903559 6.69242609,39.25 6.00207015,39.25 C5.31171421,39.25 4.75207015,38.6903559 4.75207015,38 L4.75207015,27.4754098 C4.75207015,27.3984807 4.75182171,27.3360184 4.75105219,27.189284 C4.7486157,26.7237128 4.75000464,26.5035796 4.76126312,26.2232764 C4.87404847,23.4152514 6.21381046,21.75 9.5,21.75 C12.9364205,21.75 14.1972271,23.4066642 14.2473997,26.3354623 C14.2505501,26.5193631 14.2506049,26.6643359 14.2489475,26.977788 C14.2481782,27.1231953 14.2479299,27.1853033 14.2479299,27.2622951 L14.2479299,38 C14.2479299,38.6903559 13.6882858,39.25 12.9979299,39.25 C12.3075739,39.25 11.7479299,38.6903559 11.7479299,38 L11.7479299,27.2622951 C11.7479299,27.1793852 11.748199,27.1120693 11.7489824,26.964569 C11.7505416,26.6696969 11.7504916,26.5373589 11.7477665,26.378283 C11.718722,24.682828 11.3893176,24.25 9.5,24.25 C7.71567012,24.25 7.3229293,24.7381555 7.25924899,26.3236089 C7.25000386,26.5537856 7.24877768,26.7481226 7.25101796,27.1762008 C7.25180105,27.3249409 7.25207015,27.3925977 7.25207015,27.4754098 L7.25207015,38 Z"/>
  </g>
</svg>
