<svg xmlns="http://www.w3.org/2000/svg" width="24" height="24" viewBox="0 0 24 24">
  <g fill="#517E7B" fill-rule="evenodd" transform="translate(7 2)">
    <ellipse cx="3.869" cy="1.72" rx="1" ry="1" transform="rotate(7 3.869 1.72)"/>
    <path fill-rule="nonzero" d="M4.5,4.5 C3.29304235,4.5 2.51230948,4.72603351 2.14461208,5.12665791 C1.53274446,5.79331776 1.29975291,6.68827042 1.29975291,8.48528675 C1.29975291,9.70502478 1.43542548,10.94869 1.70715073,12.2167412 C1.76501059,12.4867539 1.59302675,12.7525471 1.32301407,12.8104069 C1.05300139,12.8682668 0.787208179,12.696283 0.729348318,12.4262703 C0.443078084,11.0903425 0.29975291,9.77652841 0.29975291,8.48528675 C0.29975291,6.46171293 0.591904448,5.33951862 1.40787795,4.45047537 C2.00518719,3.79967759 3.04029098,3.5 4.5,3.5 C5.67497412,3.5 6.52036462,3.92269525 6.9472136,4.7763932 C7.38127237,5.64451075 7.44678581,6.34767409 7.43893961,8.56947335 C7.43801148,8.8354214 7.43770327,8.95593124 7.43770327,9.11303167 C7.43770327,10.2912143 7.69760522,11.3741391 8.21776758,12.3687967 C8.34573569,12.6134981 8.25110467,12.9156064 8.00640327,13.0435745 C7.76170188,13.1715427 7.45959355,13.0769116 7.33162543,12.8322102 C6.73579681,11.6928632 6.43770327,10.4508068 6.43770327,9.11303167 C6.43770327,8.95440846 6.4380148,8.83259999 6.43894585,8.56594191 C6.44617791,6.51804661 6.38804782,5.89412963 6.0527864,5.2236068 C5.81296871,4.74397142 5.32502588,4.5 4.5,4.5 Z"/>
    <path fill-rule="nonzero" d="M4.7057975,19.3285173 C4.76512995,19.5982102 4.59459909,19.864938 4.32490616,19.9242704 C4.05521324,19.9836029 3.78848548,19.813072 3.72915304,19.5433791 C3.21053798,17.1860379 2.95023148,15.4092812 2.95023148,14.1990233 C2.95011384,14.0677317 2.95011384,14.0677317 2.94975847,13.9321683 C2.94844308,13.4278804 2.94978978,13.1887619 2.95855167,12.8928519 C3.02393033,10.6848581 3.5365732,9.4500249 5.0544685,9.4500249 C6.44930876,9.4500249 6.70654931,10.1661711 6.72983814,12.2960092 C6.74126645,13.3411654 6.76706257,13.8372823 6.87288271,14.4711561 C7.14773937,16.1175764 7.42487204,17.5494286 7.70403778,18.7661364 C7.7657922,19.0352851 7.59766594,19.3035351 7.32851728,19.3652895 C7.05936862,19.4270439 6.79111867,19.2589176 6.72936425,18.989769 C6.4453561,17.7519561 6.16449329,16.3008315 5.88653286,14.6358193 C5.76959823,13.9353685 5.74187366,13.4021632 5.72989791,12.3069431 C5.71243938,10.7103046 5.61894661,10.4500249 5.0544685,10.4500249 C4.32725689,10.4500249 4.00859392,11.2176072 3.95811358,12.9224489 C3.94977253,13.2041462 3.94846737,13.4358889 3.94975506,13.9295599 C3.95011176,14.0655121 3.95011176,14.0655121 3.95023148,14.1990233 C3.95023148,15.3213696 4.20142084,17.0358961 4.7057975,19.3285173 Z" transform="rotate(-13 5.333 14.693)"/>
  </g>
</svg>
