<svg xmlns="http://www.w3.org/2000/svg" width="24" height="24" viewBox="0 0 24 24">
  <path d="M0 1C0 .44771525.44771525 0 1 0 1.55228475 0 2 .44771525 2 1L2 15C2 15.5522847 1.55228475 16 1 16 .44771525 16 0 15.5522847 0 15L0 1zM13.6679097 14.2557577C14.0789434 14.6246341 14.1131186 15.2568761 13.7442423 15.6679097 13.3753659 16.0789434 12.7431239 16.1131186 12.3320903 15.7442423L4.33209026 8.5647551C3.88172106 8.16057761 3.89072434 7.45213886 4.35121951 7.05953721L12.3512195.23902439C12.7714947-.119287179 13.402664-.0690557121 13.7609756.351219512 14.1192872.771494736 14.0690557 1.40266404 13.6487805 1.76097561L6.51871487 7.8398136 13.6679097 14.2557577z" transform="translate(6 4)"/>
</svg>
