<svg xmlns="http://www.w3.org/2000/svg" width="24" height="24" viewBox="0 0 24 24">
  <path d="M8.49564598,12.6616939 C10.8848944,12.0349168 12.8288957,9.74763511 12.8288957,7.23633895 C12.8288957,4.14765516 10.3250227,1.64378222 7.23633895,1.64378222 C4.14765516,1.64378222 1.64378222,4.14765516 1.64378222,7.23633895 C1.64378222,7.69025688 1.27580903,8.05823006 0.821891109,8.05823006 C0.367973183,8.05823006 0,7.69025688 0,7.23633895 C0,3.2398193 3.2398193,0 7.23633895,0 C11.2328586,0 14.4726779,3.2398193 14.4726779,7.23633895 C14.4726779,10.2709034 12.3640961,12.9941115 9.60686727,14.0305208 L11.9779587,14.7926573 C12.4101015,14.9315604 12.6478193,15.3944845 12.5089163,15.8266274 C12.3700132,16.2587702 11.907089,16.496488 11.4749462,16.357585 L6.23395856,14.6729818 L7.64154407,9.58305204 C7.76253091,9.14555499 8.21527155,8.88897277 8.6527686,9.00995961 C9.09026565,9.13094645 9.34684787,9.58368709 9.22586103,10.0211841 L8.49564598,12.6616939 Z" transform="translate(5 4)"/>
</svg>
