<svg xmlns="http://www.w3.org/2000/svg" width="24" height="24" viewBox="0 0 24 24">
  <g transform="translate(5 4)">
    <path d="M12,1 C12,0.44771525 12.4477153,0 13,0 C13.5522847,0 14,0.44771525 14,1 L14,15 C14,15.5522847 13.5522847,16 13,16 C12.4477153,16 12,15.5522847 12,15 L12,1 Z" transform="matrix(-1 0 0 1 26 0)"/>
    <path d="M2.51871558,7.83983298 L9.66791045,14.2557771 C10.0789441,14.6246535 10.1131194,15.2568955 9.74424299,15.6679291 C9.37536663,16.0789628 8.74312463,16.113138 8.33209097,15.7442617 L0.332090968,8.56477448 C-0.118278234,8.16059699 -0.10927495,7.45215824 0.351220222,7.05955658 L8.35122022,0.239043763 C8.77149545,-0.119267807 9.40266475,-0.0690363395 9.76097632,0.351238885 C10.1192879,0.771514109 10.0690564,1.40268341 9.6487812,1.76099498 L2.51871558,7.83983298 Z" transform="matrix(-1 0 0 1 10 0)"/>
  </g>
</svg>
