<svg xmlns="http://www.w3.org/2000/svg" width="48" height="48" viewBox="0 0 48 48">
  <g fill="none" fill-rule="evenodd">
    <ellipse cx="24.5" cy="17" fill="#000" rx="1.5" ry="2"/>
    <circle cx="9.5" cy="21.5" r="1.5" fill="#000"/>
    <circle cx="12.5" cy="13.5" r="1.5" fill="#000"/>
    <circle cx="19.5" cy="8.5" r="1.5" fill="#000"/>
    <circle cx="38.5" cy="21.5" r="1.5" fill="#000"/>
    <circle cx="35.5" cy="13.5" r="1.5" fill="#000"/>
    <circle cx="28.5" cy="8.5" r="1.5" fill="#000"/>
    <path fill="#000" fill-rule="nonzero" d="M39.6857315,39.6659189 C40.4225242,40.044638 40.7128001,40.9489389 40.3340811,41.6857315 C39.955362,42.4225242 39.0510611,42.7128001 38.3142685,42.3340811 C34.7458913,40.499898 29.9579339,39.5 25,39.5 C19.8405401,39.5 14.2086016,40.5727502 10.6708204,42.3416408 C9.92985265,42.7121247 9.02884309,42.4117881 8.65835921,41.6708204 C8.28787534,40.9298526 8.58821186,40.0288431 9.32917961,39.6583592 C13.3298599,37.658019 19.4094599,36.5 25,36.5 C30.4074028,36.5 35.6609192,37.5971236 39.6857315,39.6659189 Z" transform="matrix(1 0 0 -1 0 79)"/>
    <path fill="#000" fill-rule="nonzero" d="M22,33.5000107 C22.8284271,33.5000107 23.5,34.1715835 23.5,35.0000107 C23.5,35.8284378 22.8284271,36.5000107 22,36.5000107 C19.2694487,36.5000107 17.5,35.3203782 17.5,33.0000107 C17.5,31.7065822 17.9900288,29.0799371 18.977308,24.9530183 C19.4617099,22.9281869 21.2718479,21.5000107 23.3538148,21.5000107 L25.6461632,21.5000107 C27.7281407,21.4999947 29.5382908,22.9281768 30.0226924,24.9530201 C31.0099712,29.079937 31.5,31.7065821 31.5,33.0000107 C31.5,35.3113068 29.7545019,36.5000107 27.0631912,36.5000107 C26.234764,36.5000107 25.5631912,35.8284378 25.5631912,35.0000107 C25.5631912,34.1715835 26.234764,33.5000107 27.0631912,33.5000107 C28.2876255,33.5000107 28.5,33.3553812 28.5,33.0000107 C28.5,32.0337296 28.0325999,29.5283784 27.1050209,25.6510121 C26.9435535,24.9760637 26.3401731,24.5000053 25.6461747,24.5000107 L23.3538148,24.5000107 C22.659826,24.5000107 22.0564461,24.9760699 21.894979,25.6510125 C20.9674001,29.5283785 20.5,32.0337296 20.5,33.0000107 C20.5,33.3463098 20.7305513,33.5000107 22,33.5000107 Z"/>
  </g>
</svg>
